<svg width="400" height="240" xmlns="http://www.w3.org/2000/svg">
  <!-- Background gradient -->
  <defs>
    <linearGradient id="f1Gradient" x1="0%" y1="0%" x2="100%" y2="100%">
      <stop offset="0%" style="stop-color:#1e3a8a;stop-opacity:1" />
      <stop offset="50%" style="stop-color:#3b82f6;stop-opacity:1" />
      <stop offset="100%" style="stop-color:#1e40af;stop-opacity:1" />
    </linearGradient>
    <linearGradient id="carGradient" x1="0%" y1="0%" x2="100%" y2="0%">
      <stop offset="0%" style="stop-color:#0ea5e9;stop-opacity:1" />
      <stop offset="100%" style="stop-color:#0284c7;stop-opacity:1" />
    </linearGradient>
  </defs>
  
  <!-- Background -->
  <rect width="400" height="240" fill="url(#f1Gradient)"/>
  
  <!-- F1 Cars silhouettes -->
  <!-- Car 1 -->
  <g transform="translate(50, 80)">
    <!-- Car body -->
    <ellipse cx="60" cy="25" rx="55" ry="12" fill="url(#carGradient)"/>
    <!-- Front wing -->
    <rect x="5" y="20" width="15" height="10" fill="#ffffff" opacity="0.9"/>
    <!-- Rear wing -->
    <rect x="100" y="18" width="12" height="14" fill="#ffffff" opacity="0.9"/>
    <!-- Wheels -->
    <circle cx="25" cy="25" r="8" fill="#1f2937"/>
    <circle cx="95" cy="25" r="8" fill="#1f2937"/>
  </g>
  
  <!-- Car 2 (smaller, background) -->
  <g transform="translate(200, 100)">
    <!-- Car body -->
    <ellipse cx="45" cy="20" rx="40" ry="9" fill="url(#carGradient)" opacity="0.7"/>
    <!-- Front wing -->
    <rect x="5" y="16" width="12" height="8" fill="#ffffff" opacity="0.6"/>
    <!-- Rear wing -->
    <rect x="75" y="15" width="10" height="10" fill="#ffffff" opacity="0.6"/>
    <!-- Wheels -->
    <circle cx="20" cy="20" r="6" fill="#1f2937" opacity="0.7"/>
    <circle cx="70" cy="20" r="6" fill="#1f2937" opacity="0.7"/>
  </g>
  
  <!-- F1 Logo -->
  <g transform="translate(150, 50)">
    <!-- F -->
    <rect x="0" y="0" width="40" height="12" fill="white"/>
    <rect x="0" y="0" width="12" height="80" fill="white"/>
    <rect x="0" y="34" width="35" height="12" fill="white"/>
    
    <!-- 1 -->
    <rect x="60" y="0" width="25" height="12" fill="white"/>
    <rect x="72" y="0" width="12" height="80" fill="white"/>
    <rect x="60" y="68" width="30" height="12" fill="white"/>
    <rect x="60" y="58" width="12" height="10" fill="white"/>
  </g>
  
  <!-- Racing stripes -->
  <rect x="0" y="210" width="400" height="6" fill="white" opacity="0.8"/>
  <rect x="0" y="220" width="400" height="6" fill="#ef4444" opacity="0.8"/>
  <rect x="0" y="230" width="400" height="6" fill="white" opacity="0.8"/>
  
  <!-- Speed lines -->
  <g opacity="0.3">
    <line x1="0" y1="60" x2="80" y2="60" stroke="white" stroke-width="2"/>
    <line x1="0" y1="80" x2="120" y2="80" stroke="white" stroke-width="2"/>
    <line x1="0" y1="100" x2="100" y2="100" stroke="white" stroke-width="2"/>
    <line x1="0" y1="140" x2="90" y2="140" stroke="white" stroke-width="2"/>
    <line x1="0" y1="160" x2="110" y2="160" stroke="white" stroke-width="2"/>
  </g>
</svg>